<svg xmlns="http://www.w3.org/2000/svg" xmlns:xlink="http://www.w3.org/1999/xlink" width="25" height="25" version="1.1" viewBox="0 0 25 25"><title>icon</title><desc>Created with Sketch.</desc><g id="Page-1" fill="none" fill-rule="evenodd" stroke="none" stroke-width="1"><g id="icon" fill="#2879FF"><polygon id="Path" points="13.867 15.625 13.867 14.063 18.555 14.063 18.555 15.625"/><polygon id="Path" points="13.867 12.5 13.867 10.938 21.68 10.938 21.68 12.5"/><polygon id="Path" points="13.867 9.375 13.867 7.813 21.68 7.813 21.68 9.375"/><rect id="Rectangle" width="7.813" height="7.813" x="2.93" y="7.813"/><path id="Shape" fill-rule="nonzero" d="M0,0 L0,25 L24.9992188,25 L25,0 L0,0 Z M17.1875,1.5625 L17.1875,3.125 L7.8125,3.125 L7.8125,1.5625 L17.1875,1.5625 Z M6.25,1.5625 L6.25,3.125 L4.6875,3.125 L4.6875,1.5625 L6.25,1.5625 Z M1.5625,1.5625 L3.125,1.5625 L3.125,3.125 L1.5625,3.125 L1.5625,1.5625 Z M23.4367188,23.046875 L1.5625,23.046875 L1.5625,4.6875 L23.4367188,4.6875 L23.4367188,23.046875 Z M23.4375,3.125 L20.3125,3.125 L20.3125,1.5625 L23.4375,1.5625 L23.4375,3.125 Z"/></g></g></svg>